<svg height="600" width="600">
 <line x1="-300" y1="300" x2="900" y2="300" style="stroke:gray;stroke-width:1" /> <line x1="300" y1="-300" x2="300" y2="900" style="stroke:gray;stroke-width:1" /><text x="310" y="320" style=" fill: black; stroke: #000000 ;font-size:32">O</text>"<text x="310" y="-190" style=" fill: black; stroke: #000000 ;font-size:32">Y</text>"<text x="880" y="320" style=" fill: black; stroke: #000000 ;font-size:32">X</text>
<polyline points=" -237.0,299.9998977877176 -233.9999999999999,299.99989045158816 -230.9999999999999,299.9998825889193 -227.99999999999977,299.99987416191954 -224.99999999999977,299.99986513008474 -221.99999999999977,299.99985545000396 -218.99999999999966,299.99984507515023 -215.99999999999966,299.9998339556573 -212.99999999999966,299.9998220380799 -209.99999999999955,299.9998092651367 -206.99999999999955,299.99979557543514 -203.9999999999995,299.9997809031763 -200.99999999999943,299.99976517783864 -197.99999999999943,299.999748323839 -194.99999999999937,299.99973026016954 -191.99999999999932,299.9997109000079 -188.99999999999926,299.99969015030047 -185.9999999999992,299.99966791131465 -182.9999999999992,299.9996440761598 -179.9999999999992,299.99961853027344 -176.9999999999992,299.9995911508703 -173.9999999999992,299.99956180635263 -170.9999999999992,299.9995303556773 -167.99999999999926,299.9994966476781 -164.99999999999926,299.9994605203391 -161.99999999999926,299.99942180001585 -158.99999999999926,299.99938030060093 -155.99999999999926,299.99933582262935 -152.99999999999932,299.9992881523197 -149.99999999999932,299.9992370605469 -146.99999999999932,299.99918230174063 -143.99999999999932,299.9991236127052 -140.99999999999932,299.99906071135456 -137.99999999999937,299.9989932953562 -134.99999999999937,299.9989210406781 -131.99999999999937,299.99884360003165 -128.99999999999937,299.99876060120187 -125.99999999999937,299.99867164525864 -122.99999999999943,299.99857630463936 -119.99999999999943,299.99847412109375 -116.99999999999943,299.99836460348126 -113.99999999999943,299.99824722541047 -110.99999999999943,299.9981214227091 -107.99999999999943,299.99798659071234 -104.99999999999949,299.9978420813562 -101.99999999999949,299.9976872000633 -98.99999999999949,299.9975212024037 -95.99999999999949,299.9973432905173 -92.99999999999949,299.99715260927877 -89.99999999999955,299.9969482421875 -86.99999999999955,299.99672920696247 -83.99999999999955,299.99649445082093 -80.99999999999955,299.99624284541824 -77.99999999999955,299.99597318142463 -74.99999999999955,299.9956841627125 -71.9999999999996,299.9953744001266 -68.9999999999996,299.9950424048074 -65.9999999999996,299.99468658103456 -62.9999999999996,299.99430521855754 -59.9999999999996,299.993896484375 -56.99999999999966,299.99345841392494 -53.99999999999966,299.99298890164187 -50.99999999999966,299.99248569083653 -47.99999999999966,299.99194636284926 -44.99999999999966,299.99136832542496 -41.999999999999716,299.99074880025324 -38.999999999999716,299.9900848096148 -35.999999999999716,299.9893731620691 -32.999999999999716,299.988610437115 -29.999999999999716,299.98779296875 -26.999999999999773,299.9869168278499 -23.999999999999773,299.98597780328373 -20.999999999999773,299.98497138167306 -17.999999999999773,299.9838927256986 -14.999999999999773,299.9827366508499 -11.999999999999773,299.9814976005065 -8.99999999999983,299.98016961922957 -5.9999999999998295,299.9787463241383 -2.9999999999998295,299.97722087423006 1.7053025658242404E-13,299.9755859375 3.0000000000001705,299.9738336556998 6.000000000000114,299.97195560656746 9.000000000000114,299.96994276334607 12.000000000000114,299.96778545139716 15.000000000000114,299.9654733016999 18.000000000000114,299.9629952010129 21.000000000000114,299.96033923845914 24.000000000000057,299.95749264827657 27.000000000000057,299.9544417484601 30.000000000000057,299.951171875 33.00000000000006,299.9476673113996 36.00000000000006,299.9439112131349 39.0,299.93988552669214 42.0,299.93557090279427 45.0,299.9309466033998 48.0,299.92599040202583 50.99999999999997,299.92067847691834 53.99999999999997,299.91498529655314 56.99999999999994,299.9088834969202 59.99999999999994,299.90234375 62.99999999999994,299.89533462279917 65.99999999999991,299.8878224262698 68.99999999999991,299.8797710533843 71.99999999999991,299.8711418055886 74.99999999999989,299.8618932067995 77.99999999999989,299.8519808040517 80.99999999999989,299.8413569538367 83.99999999999986,299.8299705931062 86.99999999999986,299.81776699384045 89.99999999999983,299.8046875 92.99999999999983,299.7906692455984 95.99999999999983,299.77564485253964 98.9999999999998,299.75954210676855 101.9999999999998,299.7422836111772 104.99999999999977,299.723786413599 107.99999999999977,299.70396160810344 110.99999999999977,299.68271390767336 113.99999999999974,299.65994118621245 116.99999999999974,299.63553398768096 119.99999999999974,299.609375 122.99999999999972,299.5813384911968 125.99999999999972,299.5512897050793 128.99999999999972,299.51908421353716 131.9999999999997,299.4845672223543 134.9999999999997,299.44757282719803 137.99999999999966,299.4079232162069 140.99999999999966,299.3654278153467 143.99999999999966,299.3198823724249 146.99999999999963,299.27106797536186 149.99999999999963,299.21875 152.9999999999996,299.1626769823935 155.9999999999996,299.10257941015857 158.9999999999996,299.0381684270743 161.99999999999957,298.9691344447087 164.99999999999957,298.895145654396 167.99999999999957,298.81584643241376 170.99999999999955,298.7308556306934 173.99999999999955,298.6397647448498 176.99999999999955,298.5421359507238 179.99999999999952,298.4375 182.99999999999952,298.32535396478704 185.99999999999955,298.20515882031714 188.99999999999955,298.07633685414856 191.99999999999955,297.9382688894174 194.99999999999955,297.79029130879206 197.99999999999955,297.6316928648275 200.99999999999955,297.46171126138677 203.99999999999955,297.27952948969966 206.99999999999955,297.0842719014475 209.99999999999955,296.87500000000006 212.99999999999955,296.65070792957414 215.99999999999955,296.4103176406343 218.99999999999955,296.1526737082972 221.99999999999955,295.87653777883475 224.99999999999955,295.5805826175841 227.99999999999955,295.26338572965506 230.99999999999955,294.9234225227736 233.99999999999957,294.55905897939925 236.99999999999957,294.168543802895 239.99999999999957,293.75000000000006 242.99999999999957,293.3014158591482 245.99999999999957,292.8206352812686 248.99999999999957,292.3053474165944 251.9999999999996,291.7530755576695 254.9999999999996,291.16116523516826 257.9999999999996,290.5267714593101 260.9999999999996,289.8468450455471 263.9999999999996,289.11811795879856 266.9999999999996,288.33708760579003 269.9999999999996,287.5000000000001 272.9999999999996,286.60283171829644 275.9999999999996,285.6412705625372 278.9999999999996,284.6106948331887 281.9999999999996,283.506151115339 284.9999999999996,282.32233047033645 287.9999999999996,281.0535429186202 290.9999999999996,279.6936900910943 293.9999999999996,278.2362359175971 296.9999999999996,276.67417521158 299.9999999999996,275.0000000000002 302.9999999999996,273.20566343659294 305.9999999999996,271.2825411250744 308.9999999999996,269.2213896663774 311.9999999999996,267.01230223067796 314.9999999999996,264.64466094067296 317.9999999999996,262.1070858372404 320.9999999999996,259.3873801821886 323.9999999999996,256.4724718351942 326.9999999999996,253.34835042316007 329.9999999999996,250.00000000000045 332.9999999999996,246.41132687318583 335.9999999999996,242.56508225014878 338.9999999999996,238.44277933275475 341.9999999999996,234.0246044613559 344.9999999999996,229.28932188134587 347.9999999999996,224.21417167448078 350.9999999999996,218.7747603643772 353.9999999999996,212.94494367038837 356.9999999999996,206.69670084632008 359.9999999999996,200.00000000000088 362.9999999999996,192.82265374637166 365.9999999999996,185.1301645002975 368.9999999999996,176.88555866550945 371.99999999999966,168.0492089227117 374.99999999999966,158.5786437626917 377.99999999999966,148.42834334896148 380.99999999999966,137.5495207287543 383.99999999999966,125.88988734077665 386.99999999999966,113.39340169264008 389.99999999999966,100.00000000000168 392.99999999999966,85.64530749274314 395.99999999999966,70.26032900059488 398.99999999999966,53.77111733101873 401.99999999999966,36.098417845423285 404.99999999999966,17.157287525383254 407.99999999999966,-3.1433133020772175 410.99999999999966,-24.90095854249165 413.99999999999966,-48.22022531844692 416.99999999999966,-73.21319661472006 419.99999999999966,-99.99999999999693 422.99999999999966,-128.70938501451394 425.99999999999966,-159.4793419988104 428.99999999999966,-192.45776533796254 431.99999999999966,-227.80316430915332 434.99999999999966,-265.68542494923315 437.9999999999996,-306.28662660415387 440.9999999999996,-349.8019170849825 443.9999999999996,-396.4404506368928 446.99999999999955,-446.42639322943876 449.99999999999955,-499.99999999999204 452.99999999999955,-557.4187700290258 455.99999999999955,-618.9586839976184 458.99999999999955,-684.9155306759226 461.99999999999955,-755.6063286183039 464.99999999999955,-831.3708498984636 467.99999999999955,-912.5732532083048 470.9999999999995,-999.6038341699618 473.9999999999995,-1092.880901273782 476.9999999999995,-1192.8527864588739 479.99999999999943,-1299.9999999999802 482.99999999999943,-1414.8375400580476 485.99999999999943,-1537.9173679952323 488.99999999999943,-1669.8310613518406 491.99999999999943,-1811.2126572366028 494.99999999999943,-1962.7416997969212 497.99999999999943,-2125.146506416603 500.99999999999943,-2299.2076683399173 503.9999999999994,-2485.7618025475576 506.9999999999994,-2685.7055729177405 509.9999999999994,-2899.9999999999527 512.9999999999993,-3129.675080116087 515.9999999999993,-3375.834735990456 518.9999999999993,-3639.6621227036712 521.9999999999993,-3922.4253144731956 524.9999999999993,-4225.483399593832 527.9999999999993,-4550.293012833195 530.9999999999993,-4898.415336679822 533.9999999999993,-5271.523605095102 536.9999999999993,-5671.4111458354655 539.9999999999993,-6099.99999999989 542.9999999999992,-6559.350160232157 545.9999999999992,-7051.669471980894 548.9999999999992,-7579.324245407322 551.9999999999992,-8144.850628946369 554.9999999999992,-8750.966799187641 557.9999999999992,-9400.586025666367 560.9999999999992,-10096.830673359618 563.9999999999991,-10843.047210190176 566.9999999999991,-11642.822291670904 569.9999999999991,-12499.999999999749 572.9999999999991,-13418.700320464279 575.9999999999991,-14403.338943961751 578.9999999999991,-15458.648490814609 581.9999999999991,-16589.701257892695 584.9999999999991,-17801.933598375235 587.9999999999991,-19101.172051332684 590.9999999999991,-20493.661346719186 593.9999999999991,-21986.094420380294 596.9999999999991,-23585.644583341746 599.9999999999991,-25299.999999999432 602.9999999999991,-27137.400640928492 605.9999999999991,-29106.677887923426 608.9999999999991,-31217.296981629137 611.999999999999,-33479.40251578531 614.999999999999,-35903.86719675039 617.999999999999,-38502.34410266527 620.999999999999,-41287.32269343827 623.999999999999,-44272.18884076048 626.9999999999989,-47471.289166683375 629.9999999999989,-50899.99999999874 632.9999999999989,-54574.801281856846 635.9999999999989,-58513.35577584672 638.9999999999989,-62734.593963258114 641.9999999999989,-67258.80503157046 644.9999999999989,-72107.73439350059 647.9999999999989,-77304.68820533036 650.9999999999989,-82874.64538687633 653.9999999999989,-88844.37768152074 656.9999999999989,-95242.57833336652 659.9999999999989,-102099.99999999722 662.9999999999989,-109449.60256371342 665.9999999999989,-117326.71155169314 668.9999999999989,-125769.18792651592 671.9999999999989,-134817.61006314057 674.9999999999987,-144515.46878700083 677.9999999999987,-154909.37641066033 680.9999999999987,-166049.29077375226 683.9999999999987,-177988.75536304104 686.9999999999987,-190785.15666673257 689.9999999999987,-204499.99999999395 692.9999999999986,-219199.20512742628 695.9999999999986,-234953.4231033857 698.9999999999986,-251838.37585303123 701.9999999999986,-269935.2201262805 704.9999999999986,-289330.937574001 707.9999999999986,-310118.7528213199 710.9999999999986,-332398.5815475037 713.9999999999986,-356277.5107260812 716.9999999999986,-381870.31333346415 719.9999999999986,-409299.9999999869 722.9999999999986,-438698.41025485145 725.9999999999986,-470206.8462067702 728.9999999999986,-503976.7517060612 731.9999999999986,-540170.4402525596 734.9999999999986,-578961.8751480005 737.9999999999985,-620537.5056426383 740.9999999999985,-665097.1630950057 743.9999999999985,-712855.0214521607 746.9999999999985,-764040.6266669264 749.9999999999985,-818899.9999999717 752.9999999999985,-877696.8205097009 755.9999999999984,-940713.6924135382 758.9999999999984,-1008253.5034121199 761.9999999999984,-1080640.8805051167 764.9999999999984,-1158223.750295998 767.9999999999984,-1241375.0112852734 770.9999999999984,-1330494.326190008 773.9999999999984,-1426010.0429043178 776.9999999999984,-1528381.2533338491 779.9999999999984,-1638099.9999999395 782.9999999999984,-1755693.6410193997 785.9999999999984,-1881727.3848270765 788.9999999999985,-2016807.0068242422 791.9999999999986,-2161581.7610102384 794.9999999999986,-2316747.500592005 797.9999999999986,-2483050.0225705593 800.9999999999986,-2661288.652380033 803.9999999999987,-2852320.0858086566 806.9999999999989,-3057062.506667725 809.9999999999989,-3276499.999999911 812.9999999999989,-3511687.2820388335 815.9999999999989,-3763754.76965419 818.999999999999,-4033914.0136485244 821.999999999999,-4323463.52202052 824.9999999999991,-4633795.001184055 827.9999999999991,-4966400.045141167 830.9999999999991,-5322877.304760118 833.9999999999992,-5704940.17161737 836.9999999999992,-6114425.01333551 839.9999999999992,-6553299.999999887"
  style="fill:none;stroke:BLACK;stroke-width:1.0" />
<polyline points=" -237.0,299.9998977877176 -233.9999999999999,299.99989045158816 -230.9999999999999,299.9998825889193 -227.99999999999977,299.99987416191954 -224.99999999999977,299.99986513008474 -221.99999999999977,299.99985545000396 -218.99999999999966,299.99984507515023 -215.99999999999966,299.9998339556573 -212.99999999999966,299.9998220380799 -209.99999999999955,299.9998092651367 -206.99999999999955,299.99979557543514 -203.9999999999995,299.9997809031763 -200.99999999999943,299.99976517783864 -197.99999999999943,299.999748323839 -194.99999999999937,299.99973026016954 -191.99999999999932,299.9997109000079 -188.99999999999926,299.99969015030047 -185.9999999999992,299.99966791131465 -182.9999999999992,299.9996440761598 -179.9999999999992,299.99961853027344 -176.9999999999992,299.9995911508703 -173.9999999999992,299.99956180635263 -170.9999999999992,299.9995303556773 -167.99999999999926,299.9994966476781 -164.99999999999926,299.9994605203391 -161.99999999999926,299.99942180001585 -158.99999999999926,299.99938030060093 -155.99999999999926,299.99933582262935 -152.99999999999932,299.9992881523197 -149.99999999999932,299.9992370605469 -146.99999999999932,299.99918230174063 -143.99999999999932,299.9991236127052 -140.99999999999932,299.99906071135456 -137.99999999999937,299.9989932953562 -134.99999999999937,299.9989210406781 -131.99999999999937,299.99884360003165 -128.99999999999937,299.99876060120187 -125.99999999999937,299.99867164525864 -122.99999999999943,299.99857630463936 -119.99999999999943,299.99847412109375 -116.99999999999943,299.99836460348126 -113.99999999999943,299.99824722541047 -110.99999999999943,299.9981214227091 -107.99999999999943,299.99798659071234 -104.99999999999949,299.9978420813562 -101.99999999999949,299.9976872000633 -98.99999999999949,299.9975212024037 -95.99999999999949,299.9973432905173 -92.99999999999949,299.99715260927877 -89.99999999999955,299.9969482421875 -86.99999999999955,299.99672920696247 -83.99999999999955,299.99649445082093 -80.99999999999955,299.99624284541824 -77.99999999999955,299.99597318142463 -74.99999999999955,299.9956841627125 -71.9999999999996,299.9953744001266 -68.9999999999996,299.9950424048074 -65.9999999999996,299.99468658103456 -62.9999999999996,299.99430521855754 -59.9999999999996,299.993896484375 -56.99999999999966,299.99345841392494 -53.99999999999966,299.99298890164187 -50.99999999999966,299.99248569083653 -47.99999999999966,299.99194636284926 -44.99999999999966,299.99136832542496 -41.999999999999716,299.99074880025324 -38.999999999999716,299.9900848096148 -35.999999999999716,299.9893731620691 -32.999999999999716,299.988610437115 -29.999999999999716,299.98779296875 -26.999999999999773,299.9869168278499 -23.999999999999773,299.98597780328373 -20.999999999999773,299.98497138167306 -17.999999999999773,299.9838927256986 -14.999999999999773,299.9827366508499 -11.999999999999773,299.9814976005065 -8.99999999999983,299.98016961922957 -5.9999999999998295,299.9787463241383 -2.9999999999998295,299.97722087423006 1.7053025658242404E-13,299.9755859375 3.0000000000001705,299.9738336556998 6.000000000000114,299.97195560656746 9.000000000000114,299.96994276334607 12.000000000000114,299.96778545139716 15.000000000000114,299.9654733016999 18.000000000000114,299.9629952010129 21.000000000000114,299.96033923845914 24.000000000000057,299.95749264827657 27.000000000000057,299.9544417484601 30.000000000000057,299.951171875 33.00000000000006,299.9476673113996 36.00000000000006,299.9439112131349 39.0,299.93988552669214 42.0,299.93557090279427 45.0,299.9309466033998 48.0,299.92599040202583 50.99999999999997,299.92067847691834 53.99999999999997,299.91498529655314 56.99999999999994,299.9088834969202 59.99999999999994,299.90234375 62.99999999999994,299.89533462279917 65.99999999999991,299.8878224262698 68.99999999999991,299.8797710533843 71.99999999999991,299.8711418055886 74.99999999999989,299.8618932067995 77.99999999999989,299.8519808040517 80.99999999999989,299.8413569538367 83.99999999999986,299.8299705931062 86.99999999999986,299.81776699384045 89.99999999999983,299.8046875 92.99999999999983,299.7906692455984 95.99999999999983,299.77564485253964 98.9999999999998,299.75954210676855 101.9999999999998,299.7422836111772 104.99999999999977,299.723786413599 107.99999999999977,299.70396160810344 110.99999999999977,299.68271390767336 113.99999999999974,299.65994118621245 116.99999999999974,299.63553398768096 119.99999999999974,299.609375 122.99999999999972,299.5813384911968 125.99999999999972,299.5512897050793 128.99999999999972,299.51908421353716 131.9999999999997,299.4845672223543 134.9999999999997,299.44757282719803 137.99999999999966,299.4079232162069 140.99999999999966,299.3654278153467 143.99999999999966,299.3198823724249 146.99999999999963,299.27106797536186 149.99999999999963,299.21875 152.9999999999996,299.1626769823935 155.9999999999996,299.10257941015857 158.9999999999996,299.0381684270743 161.99999999999957,298.9691344447087 164.99999999999957,298.895145654396 167.99999999999957,298.81584643241376 170.99999999999955,298.7308556306934 173.99999999999955,298.6397647448498 176.99999999999955,298.5421359507238 179.99999999999952,298.4375 182.99999999999952,298.32535396478704 185.99999999999955,298.20515882031714 188.99999999999955,298.07633685414856 191.99999999999955,297.9382688894174 194.99999999999955,297.79029130879206 197.99999999999955,297.6316928648275 200.99999999999955,297.46171126138677 203.99999999999955,297.27952948969966 206.99999999999955,297.0842719014475 209.99999999999955,296.87500000000006 212.99999999999955,296.65070792957414 215.99999999999955,296.4103176406343 218.99999999999955,296.1526737082972 221.99999999999955,295.87653777883475 224.99999999999955,295.5805826175841 227.99999999999955,295.26338572965506 230.99999999999955,294.9234225227736 233.99999999999957,294.55905897939925 236.99999999999957,294.168543802895 239.99999999999957,293.75000000000006 242.99999999999957,293.3014158591482 245.99999999999957,292.8206352812686 248.99999999999957,292.3053474165944 251.9999999999996,291.7530755576695 254.9999999999996,291.16116523516826 257.9999999999996,290.5267714593101 260.9999999999996,289.8468450455471 263.9999999999996,289.11811795879856 266.9999999999996,288.33708760579003 269.9999999999996,287.5000000000001 272.9999999999996,286.60283171829644 275.9999999999996,285.6412705625372 278.9999999999996,284.6106948331887 281.9999999999996,283.506151115339 284.9999999999996,282.32233047033645 287.9999999999996,281.0535429186202 290.9999999999996,279.6936900910943 293.9999999999996,278.2362359175971 296.9999999999996,276.67417521158 299.9999999999996,275.0000000000002 302.9999999999996,273.20566343659294 305.9999999999996,271.2825411250744 308.9999999999996,269.2213896663774 311.9999999999996,267.01230223067796 314.9999999999996,264.64466094067296 317.9999999999996,262.1070858372404 320.9999999999996,259.3873801821886 323.9999999999996,256.4724718351942 326.9999999999996,253.34835042316007 329.9999999999996,250.00000000000045 332.9999999999996,246.41132687318583 335.9999999999996,242.56508225014878 338.9999999999996,238.44277933275475 341.9999999999996,234.0246044613559 344.9999999999996,229.28932188134587 347.9999999999996,224.21417167448078 350.9999999999996,218.7747603643772 353.9999999999996,212.94494367038837 356.9999999999996,206.69670084632008 359.9999999999996,200.00000000000088 362.9999999999996,192.82265374637166 365.9999999999996,185.1301645002975 368.9999999999996,176.88555866550945 371.99999999999966,168.0492089227117 374.99999999999966,158.5786437626917 377.99999999999966,148.42834334896148 380.99999999999966,137.5495207287543 383.99999999999966,125.88988734077665 386.99999999999966,113.39340169264008 389.99999999999966,100.00000000000168 392.99999999999966,85.64530749274314 395.99999999999966,70.26032900059488 398.99999999999966,53.77111733101873 401.99999999999966,36.098417845423285 404.99999999999966,17.157287525383254 407.99999999999966,-3.1433133020772175 410.99999999999966,-24.90095854249165 413.99999999999966,-48.22022531844692 416.99999999999966,-73.21319661472006 419.99999999999966,-99.99999999999693 422.99999999999966,-128.70938501451394 425.99999999999966,-159.4793419988104 428.99999999999966,-192.45776533796254 431.99999999999966,-227.80316430915332 434.99999999999966,-265.68542494923315 437.9999999999996,-306.28662660415387 440.9999999999996,-349.8019170849825 443.9999999999996,-396.4404506368928 446.99999999999955,-446.42639322943876 449.99999999999955,-499.99999999999204 452.99999999999955,-557.4187700290258 455.99999999999955,-618.9586839976184 458.99999999999955,-684.9155306759226 461.99999999999955,-755.6063286183039 464.99999999999955,-831.3708498984636 467.99999999999955,-912.5732532083048 470.9999999999995,-999.6038341699618 473.9999999999995,-1092.880901273782 476.9999999999995,-1192.8527864588739 479.99999999999943,-1299.9999999999802 482.99999999999943,-1414.8375400580476 485.99999999999943,-1537.9173679952323 488.99999999999943,-1669.8310613518406 491.99999999999943,-1811.2126572366028 494.99999999999943,-1962.7416997969212 497.99999999999943,-2125.146506416603 500.99999999999943,-2299.2076683399173 503.9999999999994,-2485.7618025475576 506.9999999999994,-2685.7055729177405 509.9999999999994,-2899.9999999999527 512.9999999999993,-3129.675080116087 515.9999999999993,-3375.834735990456 518.9999999999993,-3639.6621227036712 521.9999999999993,-3922.4253144731956 524.9999999999993,-4225.483399593832 527.9999999999993,-4550.293012833195 530.9999999999993,-4898.415336679822 533.9999999999993,-5271.523605095102 536.9999999999993,-5671.4111458354655 539.9999999999993,-6099.99999999989 542.9999999999992,-6559.350160232157 545.9999999999992,-7051.669471980894 548.9999999999992,-7579.324245407322 551.9999999999992,-8144.850628946369 554.9999999999992,-8750.966799187641 557.9999999999992,-9400.586025666367 560.9999999999992,-10096.830673359618 563.9999999999991,-10843.047210190176 566.9999999999991,-11642.822291670904 569.9999999999991,-12499.999999999749 572.9999999999991,-13418.700320464279 575.9999999999991,-14403.338943961751 578.9999999999991,-15458.648490814609 581.9999999999991,-16589.701257892695 584.9999999999991,-17801.933598375235 587.9999999999991,-19101.172051332684 590.9999999999991,-20493.661346719186 593.9999999999991,-21986.094420380294 596.9999999999991,-23585.644583341746 599.9999999999991,-25299.999999999432 602.9999999999991,-27137.400640928492 605.9999999999991,-29106.677887923426 608.9999999999991,-31217.296981629137 611.999999999999,-33479.40251578531 614.999999999999,-35903.86719675039 617.999999999999,-38502.34410266527 620.999999999999,-41287.32269343827 623.999999999999,-44272.18884076048 626.9999999999989,-47471.289166683375 629.9999999999989,-50899.99999999874 632.9999999999989,-54574.801281856846 635.9999999999989,-58513.35577584672 638.9999999999989,-62734.593963258114 641.9999999999989,-67258.80503157046 644.9999999999989,-72107.73439350059 647.9999999999989,-77304.68820533036 650.9999999999989,-82874.64538687633 653.9999999999989,-88844.37768152074 656.9999999999989,-95242.57833336652 659.9999999999989,-102099.99999999722 662.9999999999989,-109449.60256371342 665.9999999999989,-117326.71155169314 668.9999999999989,-125769.18792651592 671.9999999999989,-134817.61006314057 674.9999999999987,-144515.46878700083 677.9999999999987,-154909.37641066033 680.9999999999987,-166049.29077375226 683.9999999999987,-177988.75536304104 686.9999999999987,-190785.15666673257 689.9999999999987,-204499.99999999395 692.9999999999986,-219199.20512742628 695.9999999999986,-234953.4231033857 698.9999999999986,-251838.37585303123 701.9999999999986,-269935.2201262805 704.9999999999986,-289330.937574001 707.9999999999986,-310118.7528213199 710.9999999999986,-332398.5815475037 713.9999999999986,-356277.5107260812 716.9999999999986,-381870.31333346415 719.9999999999986,-409299.9999999869 722.9999999999986,-438698.41025485145 725.9999999999986,-470206.8462067702 728.9999999999986,-503976.7517060612 731.9999999999986,-540170.4402525596 734.9999999999986,-578961.8751480005 737.9999999999985,-620537.5056426383 740.9999999999985,-665097.1630950057 743.9999999999985,-712855.0214521607 746.9999999999985,-764040.6266669264 749.9999999999985,-818899.9999999717 752.9999999999985,-877696.8205097009 755.9999999999984,-940713.6924135382 758.9999999999984,-1008253.5034121199 761.9999999999984,-1080640.8805051167 764.9999999999984,-1158223.750295998 767.9999999999984,-1241375.0112852734 770.9999999999984,-1330494.326190008 773.9999999999984,-1426010.0429043178 776.9999999999984,-1528381.2533338491 779.9999999999984,-1638099.9999999395 782.9999999999984,-1755693.6410193997 785.9999999999984,-1881727.3848270765 788.9999999999985,-2016807.0068242422 791.9999999999986,-2161581.7610102384 794.9999999999986,-2316747.500592005 797.9999999999986,-2483050.0225705593 800.9999999999986,-2661288.652380033 803.9999999999987,-2852320.0858086566 806.9999999999989,-3057062.506667725 809.9999999999989,-3276499.999999911 812.9999999999989,-3511687.2820388335 815.9999999999989,-3763754.76965419 818.999999999999,-4033914.0136485244 821.999999999999,-4323463.52202052 824.9999999999991,-4633795.001184055 827.9999999999991,-4966400.045141167 830.9999999999991,-5322877.304760118 833.9999999999992,-5704940.17161737 836.9999999999992,-6114425.01333551 839.9999999999992,-6553299.999999887 -237.0,279.67107220846276 -233.9999999999999,278.31994551286044 -230.9999999999999,277.18543875522033 -227.99999999999977,276.27888755204685 -224.99999999999977,275.609349863296 -221.99999999999977,275.18351548823415 -218.99999999999966,275.00563922317474 -215.99999999999966,275.07749834896015 -212.99999999999966,275.398374872959 -209.99999999999955,275.9650627030112 -206.99999999999955,276.77189968164095 -203.9999999999995,277.8108241604626 -200.99999999999943,279.0714555495066 -197.99999999999943,280.54119803664287 -194.99999999999937,282.2053664407723 -191.99999999999932,284.0473329413017 -188.99999999999926,286.04869321783104 -185.9999999999992,288.1894503400389 -182.9999999999992,290.4482145704004 -179.9999999999992,292.802417083374 -176.9999999999992,295.2285354656459 -173.9999999999992,297.7023287443086 -170.9999999999992,300.19907959464905 -167.99999999999926,302.6938413074867 -164.99999999999926,305.1616870484455 -161.99999999999926,307.57795891864316 -158.99999999999926,309.91851432826587 -155.99999999999926,312.1599672213455 -152.99999999999932,314.2799217415002 -149.99999999999932,316.25719600392836 -146.99999999999932,318.0720337377998 -143.99999999999932,319.7063016843833 -140.99999999999932,321.14367077857366 -137.99999999999937,322.3697793035128 -134.99999999999937,323.3723763881173 -131.99999999999937,324.1414444137321 -128.99999999999937,324.6692991068654 -125.99999999999937,324.95066631790905 -122.99999999999943,324.98273471869794 -119.99999999999943,324.7651838923717 -116.99999999999943,324.3001875348743 -113.99999999999943,323.59239173610246 -110.99999999999943,322.64886855771135 -107.99999999999943,321.47904537141216 -104.99999999999949,320.09461066379026 -101.99999999999949,318.5093972488109 -98.99999999999949,316.7392440549147 -95.99999999999949,314.80183786768026 -92.99999999999949,312.716536609309 -89.99999999999955,310.50417592066566 -86.99999999999955,308.1868609784419 -83.99999999999955,305.7877456275381 -80.99999999999955,303.3308010354982 -77.99999999999955,300.84057618052805 -74.99999999999955,298.3419525662196 -71.9999999999996,295.85989561379193 -68.9999999999996,293.4192052158546 -65.9999999999996,291.04426794407897 -62.9999999999996,288.7588133866347 -59.9999999999996,286.5856770499889 -56.99999999999966,284.5465721940739 -53.99999999999966,282.6618728805717 -50.99999999999966,280.950410402024 -47.99999999999966,279.42928512578214 -44.99999999999966,278.11369563278913 -41.999999999999716,277.016786858383 -38.999999999999716,276.1495187524477 -35.999999999999716,275.520556771217 -32.999999999999716,275.13618529490026 -29.999999999999716,275.0002448362324 -26.999999999999773,275.11409366734057 -23.999999999999773,275.47659424833773 -20.999999999999773,276.08412459324535 -17.999999999999773,276.9306144596799 -14.999999999999773,278.00760600070834 -11.999999999999773,279.3043382728588 -8.99999999999983,280.80785475591057 -5.9999999999998295,282.50313281016156 -2.9999999999998295,284.373233777678 1.7053025658242404E-13,286.39947222776584 3.0000000000001705,288.5616026556171 6.000000000000114,290.83802176870194 9.000000000000114,293.2059843397265 12.000000000000114,295.6418304694256 15.000000000000114,298.12122198845486 18.000000000000114,300.619385636334 21.000000000000114,303.11136058767664 24.000000000000057,305.5722478525062 27.000000000000057,307.97745905873387 30.000000000000057,310.30296213104396 33.00000000000006,312.52552141144713 36.00000000000006,314.62292982229405 39.0,316.5742307520546 42.0,318.35992744685285 45.0,319.96217781558727 48.0,321.364972702207 50.99999999999997,322.5542958439073 53.99999999999997,323.51826391699433 56.99999999999994,324.24724527112716 59.99999999999994,324.7339561655845 62.99999999999994,324.9735335459943 65.99999999999991,324.96358363436514 68.99999999999991,324.704205846925 71.99999999999991,324.1979918007872 74.99999999999989,323.4499994193685 77.99999999999989,322.4677023952907 80.99999999999989,321.26091551571415 83.99999999999986,319.84169659622887 86.99999999999986,318.224226003147 89.99999999999983,316.4246649679698 92.99999999999983,314.4609941097051 95.99999999999983,312.35283377846537 98.9999999999998,310.1212480154151 101.9999999999998,307.7885340878346 104.99999999999977,305.37799970219555 107.99999999999977,302.9137301212625 110.99999999999977,300.42034751210895 113.99999999999974,297.9227649295628 116.99999999999974,295.4459373931978 119.99999999999974,293.0146125450271 122.99999999999972,290.6530833792443 125.99999999999972,288.3849455146563 128.99999999999972,286.23286143505925 131.9999999999997,284.21833405319217 134.9999999999997,282.3614918607404 137.99999999999966,280.6808878111005 140.99999999999966,279.19331394440263 143.99999999999966,277.9136336069963 146.99999999999963,276.8546329418068 149.99999999999963,276.02689313342165 152.9999999999996,275.4386846843918 155.9999999999996,275.09588477910404 158.9999999999996,275.0019185608975 161.99999999999957,275.15772490916333 164.99999999999957,275.5617470583725 167.99999999999957,276.20994815276197 170.99999999999955,277.09585158126345 173.99999999999955,278.2106056896601 176.99999999999955,279.5430722233895 179.99999999999952,281.07993761730154 182.99999999999952,282.8058460204004 185.99999999999955,284.7035527264317 188.99999999999955,286.75409647728736 191.99999999999955,288.93698891762836 194.99999999999955,291.2304193077591 197.99999999999955,293.61147244932886 200.99999999999955,296.0563576464184 203.99999999999955,298.5406464143101 206.99999999999955,301.0395165608319 209.99999999999955,303.5280002014963 212.99999999999955,305.9812332303492 215.99999999999955,308.3747037538973 218.99999999999955,310.6844970058454 221.99999999999955,312.8875342955363 224.99999999999955,314.9618036025986 227.99999999999955,316.8865795137785 230.99999999999955,318.64263030441776 233.99999999999957,320.21241009548953 236.99999999999957,321.58023416622166 239.99999999999957,322.7324356706419 242.99999999999957,323.65750219218523 245.99999999999957,324.3461907719548 248.99999999999957,324.79162026131166 251.9999999999996,324.9893400760376 254.9999999999996,324.9373746651014 257.9999999999996,324.6362432497116 260.9999999999996,324.0889546354299 263.9999999999996,323.30097714918077 266.9999999999996,322.28018400153604 269.9999999999996,321.0367746201976 272.9999999999996,319.5831727406873 275.9999999999996,317.9339022724883 278.9999999999996,316.10544218094253 281.9999999999996,314.1160618348762 284.9999999999996,311.98563846510535 287.9999999999996,309.7354585577166 290.9999999999996,307.3880051665338 293.9999999999996,304.96673326987684 296.9999999999996,302.495835416171 299.9999999999996,300.00000000000034 302.9999999999996,297.5041645838296 305.9999999999996,295.0332667301238 308.9999999999996,292.61199483346684 311.9999999999996,290.26454144228404 314.9999999999996,288.0143615348952 317.9999999999996,285.8839381651244 320.9999999999996,283.894557819058 323.9999999999996,282.06609772751216 326.9999999999996,280.41682725931315 329.9999999999996,278.9632253798028 332.9999999999996,277.71981599846424 335.9999999999996,276.69902285081946 338.9999999999996,275.91104536457027 341.9999999999996,275.36375675028853 344.9999999999996,275.06262533489866 347.9999999999996,275.01065992396235 350.9999999999996,275.2083797386882 353.9999999999996,275.653809228045 356.9999999999996,276.34249780781454 359.9999999999996,277.2675643293578 362.9999999999996,278.419765833778 365.9999999999996,279.78758990451007 368.9999999999996,281.3573696955818 371.99999999999966,283.113420486221 374.99999999999966,285.03819639740084 377.99999999999966,287.11246570446315 380.99999999999966,289.315502994154 383.99999999999966,291.6252962461021 386.99999999999966,294.01876676965014 389.99999999999966,296.471999798503 392.99999999999966,298.96048343916743 395.99999999999966,301.4593535856892 398.99999999999966,303.9436423535809 401.99999999999966,306.3885275506705 404.99999999999966,308.7695806922402 407.99999999999966,311.0630110823711 410.99999999999966,313.24590352271207 413.99999999999966,315.29644727356776 416.99999999999966,317.19415397959915 419.99999999999966,318.920062382698 422.99999999999966,320.4569277766101 425.99999999999966,321.78939431033956 428.99999999999966,322.90414841873627 431.99999999999966,323.7900518472378 434.99999999999966,324.43825294162735 437.9999999999996,324.84227509083655 440.9999999999996,324.9980814391025 443.9999999999996,324.9041152208961 446.99999999999955,324.5613153156084 449.99999999999955,323.9731068665786 452.99999999999955,323.1453670581934 455.99999999999955,322.086366393004 458.99999999999955,320.80668605559777 461.99999999999955,319.3191121888999 464.99999999999955,317.63850813926007 467.99999999999955,315.78166594680835 470.9999999999995,313.7671385649413 473.9999999999995,311.61505448534433 476.9999999999995,309.3469166207563 479.99999999999943,306.9853874549736 482.99999999999943,304.55406260680286 485.99999999999943,302.0772350704379 488.99999999999943,299.57965248789174 491.99999999999943,297.08626987873816 494.99999999999943,294.6220002978051 497.99999999999943,292.21146591216603 500.99999999999943,289.8787519845855 503.9999999999994,287.64716622153526 506.9999999999994,285.5390058902954 509.9999999999994,283.5753350320307 512.9999999999993,281.77577399685345 515.9999999999993,280.1583034037715 518.9999999999993,278.7390844842862 521.9999999999993,277.5322976047096 524.9999999999993,276.5500005806317 527.9999999999993,275.802008199213 530.9999999999993,275.29579415307506 533.9999999999993,275.0364163656349 536.9999999999993,275.0264664540057 539.9999999999993,275.26604383441537 542.9999999999992,275.7527547288727 545.9999999999992,276.48173608300544 548.9999999999992,277.4457041560924 551.9999999999992,278.63502729779265 554.9999999999992,280.03782218441233 557.9999999999992,281.6400725531467 560.9999999999992,283.4257692479449 563.9999999999991,285.3770701777054 566.9999999999991,287.47447858855224 569.9999999999991,289.6970378689554 572.9999999999991,292.0225409412655 575.9999999999991,294.4277521474931 578.9999999999991,296.88863941232273 581.9999999999991,299.3806143636653 584.9999999999991,301.87877801154445 587.9999999999991,304.3581695305738 590.9999999999991,306.79401566027286 593.9999999999991,309.16197823129744 596.9999999999991,311.43839734438234 599.9999999999991,313.6005277722336 602.9999999999991,315.6267662223214 605.9999999999991,317.496867189838 608.9999999999991,319.19214524408903 611.999999999999,320.6956617271409 614.999999999999,321.9923939992914 617.999999999999,323.06938554031984 620.999999999999,323.9158754067544 623.999999999999,324.5234057516621 626.9999999999989,324.8859063326594 629.9999999999989,324.9997551637676 632.9999999999989,324.8638147050998 635.9999999999989,324.4794432287831 638.9999999999989,323.8504812475525 641.9999999999989,322.9832131416173 644.9999999999989,321.88630436721115 647.9999999999989,320.57071487421825 650.9999999999989,319.0495895979764 653.9999999999989,317.33812711942875 656.9999999999989,315.4534278059266 659.9999999999989,313.4143229500117 662.9999999999989,311.2411866133659 665.9999999999989,308.95573205592166 668.9999999999989,306.580794784146 671.9999999999989,304.14010438620875 674.9999999999987,301.65804743378106 677.9999999999987,299.1594238194726 680.9999999999987,296.66919896450247 683.9999999999987,294.21225437246255 686.9999999999987,291.8131390215587 689.9999999999987,289.49582407933497 692.9999999999986,287.28346339069157 695.9999999999986,285.1981621323203 698.9999999999986,283.26075594508575 701.9999999999986,281.49060275118956 704.9999999999986,279.90538933621013 707.9999999999986,278.5209546285882 710.9999999999986,277.35113144228893 713.9999999999986,276.40760826389777 716.9999999999986,275.6998124651259 719.9999999999986,275.2348161076284 722.9999999999986,275.0172652813021 725.9999999999986,275.0493336820909 728.9999999999986,275.33070089313446 731.9999999999986,275.85855558626776 734.9999999999986,276.6276236118825 737.9999999999985,277.63022069648684 740.9999999999985,278.856329221426 743.9999999999985,280.2936983156163 746.9999999999985,281.92796626219973 749.9999999999985,283.74280399607113 752.9999999999985,285.72007825849926 755.9999999999984,287.84003277865395 758.9999999999984,290.0814856717335 761.9999999999984,292.4220410813562 764.9999999999984,294.8383129515538 767.9999999999984,297.3061586925126 770.9999999999984,299.80092040535027 773.9999999999984,302.2976712556907 776.9999999999984,304.7714645343534 779.9999999999984,307.1975829166254 782.9999999999984,309.551785429599 785.9999999999984,311.81054965996054 788.9999999999985,313.95130678216844 791.9999999999986,315.9526670586978 794.9999999999986,317.79463355922724 797.9999999999986,319.45880196335673 800.9999999999986,320.92854445049306 803.9999999999987,322.18917583953714 806.9999999999989,323.2281003183588 809.9999999999989,324.03493729698863 812.9999999999989,324.6016251270409 815.9999999999989,324.92250165103985 818.999999999999,324.9943607768253 821.999999999999,324.8164845117659 824.9999999999991,324.3906501367041 827.9999999999991,323.7211124479534 830.9999999999991,322.8145612447799 833.9999999999992,321.6800544871399 836.9999999999992,320.3289277915376 839.9999999999992,318.7746811692923"
  style="fill:none;stroke:BLACK;stroke-width:1.0" />
</svg>